<svg xmlns="http://www.w3.org/2000/svg" viewBox="0 0 1536 1004" role="img" aria-labelledby="title desc">
  <title id="title">Banner de dias especiais Wimifarma</title>
  <desc id="desc">Banner com Dia do Generico Barato, Dia do Idoso e Dia do Bebe.</desc>
  <defs>
    <linearGradient id="generic-bg" x1="0" x2="1" y1="0" y2="1">
      <stop offset="0" stop-color="#f5fbf6"/>
      <stop offset="0.48" stop-color="#fbfdfa"/>
      <stop offset="1" stop-color="#e9f7ef"/>
    </linearGradient>
    <linearGradient id="elder-bg" x1="0" x2="1" y1="0" y2="1">
      <stop offset="0" stop-color="#faf7ff"/>
      <stop offset="0.5" stop-color="#fffaff"/>
      <stop offset="1" stop-color="#f5effb"/>
    </linearGradient>
    <linearGradient id="baby-bg" x1="0" x2="1" y1="0" y2="1">
      <stop offset="0" stop-color="#fff3f0"/>
      <stop offset="0.52" stop-color="#fff9f8"/>
      <stop offset="1" stop-color="#ffecea"/>
    </linearGradient>
    <linearGradient id="navy" x1="0" x2="1" y1="0" y2="1">
      <stop offset="0" stop-color="#1e477d"/>
      <stop offset="1" stop-color="#102b5f"/>
    </linearGradient>
    <filter id="soft-shadow" x="-8%" y="-12%" width="116%" height="124%">
      <feDropShadow dx="0" dy="12" flood-color="#1f2937" flood-opacity="0.08" stdDeviation="18"/>
    </filter>
    <style>
      .ink { fill: #123160; }
      .line { fill: none; stroke: #123160; stroke-linecap: round; stroke-linejoin: round; stroke-width: 4; }
      .soft-line { fill: none; stroke: #123160; stroke-linecap: round; stroke-linejoin: round; stroke-width: 3; }
      .logo-text { fill: #05070c; font-family: Arial, Helvetica, sans-serif; font-size: 42px; font-weight: 900; }
      .label { fill: #123160; font-family: Arial, Helvetica, sans-serif; font-weight: 900; }
      .body { fill: #123160; font-family: Arial, Helvetica, sans-serif; font-weight: 700; }
    </style>
  </defs>

  <rect width="1536" height="1004" fill="#ffffff"/>

  <g filter="url(#soft-shadow)">
    <rect x="42" y="36" width="1452" height="350" rx="42" fill="url(#generic-bg)"/>
    <rect x="42" y="410" width="1452" height="260" rx="36" fill="url(#elder-bg)"/>
    <rect x="42" y="696" width="1452" height="288" rx="36" fill="url(#baby-bg)"/>
  </g>

  <g transform="translate(82 68)">
    <rect width="282" height="62" rx="31" fill="#fff" stroke="#05070c" stroke-width="5"/>
    <path d="M38 18v25M25 31h26" stroke="#05070c" stroke-linecap="round" stroke-width="8"/>
    <path d="M72 14v36" stroke="#05070c" stroke-linecap="round" stroke-width="4"/>
    <text class="logo-text" x="88" y="44">WimiFarma</text>
    <text x="258" y="22" fill="#05070c" font-family="Arial, Helvetica, sans-serif" font-size="13" font-weight="900">&#8482;</text>
  </g>

  <g transform="translate(82 442)">
    <rect width="282" height="62" rx="31" fill="#fff" stroke="#05070c" stroke-width="5"/>
    <path d="M38 18v25M25 31h26" stroke="#05070c" stroke-linecap="round" stroke-width="8"/>
    <path d="M72 14v36" stroke="#05070c" stroke-linecap="round" stroke-width="4"/>
    <text class="logo-text" x="88" y="44">WimiFarma</text>
    <text x="258" y="22" fill="#05070c" font-family="Arial, Helvetica, sans-serif" font-size="13" font-weight="900">&#8482;</text>
  </g>

  <g transform="translate(82 728)">
    <rect width="282" height="62" rx="31" fill="#fff" stroke="#05070c" stroke-width="5"/>
    <path d="M38 18v25M25 31h26" stroke="#05070c" stroke-linecap="round" stroke-width="8"/>
    <path d="M72 14v36" stroke="#05070c" stroke-linecap="round" stroke-width="4"/>
    <text class="logo-text" x="88" y="44">WimiFarma</text>
    <text x="258" y="22" fill="#05070c" font-family="Arial, Helvetica, sans-serif" font-size="13" font-weight="900">&#8482;</text>
  </g>

  <g transform="translate(462 82)">
    <text class="label" x="0" y="48" font-size="61">Dia do</text>
    <text class="label" x="0" y="118" font-size="74">Gen&#233;rico</text>
    <text class="label" x="0" y="186" font-size="70">Barato</text>
    <text class="body" x="0" y="229" font-size="25">Sa&#250;de acess&#237;vel para todos.</text>
    <text class="body" x="0" y="257" font-size="23">Qualidade que cabe no seu bolso.</text>
  </g>

  <g opacity="0.28" transform="translate(128 160)">
    <path d="M70 0h30c13 0 24 11 24 24v22h22c14 0 25 11 25 25s-11 25-25 25h-22v22c0 13-11 24-24 24H70c-13 0-24-11-24-24V96H24C11 96 0 85 0 71s11-25 24-25h22V24C46 11 57 0 70 0z" fill="#36b865"/>
    <rect x="122" y="-42" width="140" height="126" rx="30" fill="#36b865"/>
    <path d="M790-72h31c13 0 24 11 24 24v36h36c13 0 24 11 24 24v31c0 13-11 24-24 24h-36v36c0 13-11 24-24 24h-31c-13 0-24-11-24-24V67h-36c-13 0-24-11-24-24V12c0-13 11-24 24-24h36v-36c0-13 11-24 24-24z" fill="#36b865"/>
    <path d="M1242-98h72c16 0 30 14 30 30v36h36c16 0 30 14 30 30v70c0 16-14 30-30 30h-36v36c0 16-14 30-30 30h-72c-16 0-30-14-30-30V98h-36c-16 0-30-14-30-30V-2c0-16 14-30 30-30h36v-36c0-16 14-30 30-30z" fill="#36b865"/>
  </g>

  <g transform="translate(876 92)">
    <rect x="64" y="68" width="96" height="158" rx="12" fill="#ecfff2" stroke="#58b982" stroke-width="2"/>
    <rect x="58" y="38" width="108" height="32" rx="6" fill="#ffffff" stroke="#58b982" stroke-width="2"/>
    <rect x="64" y="126" width="96" height="62" fill="#8fd9ad"/>
    <circle cx="112" cy="157" r="30" fill="#163a71"/>
    <path d="M112 138v38M93 157h38" stroke="#ffffff" stroke-linecap="round" stroke-width="12"/>
    <rect x="170" y="34" width="158" height="192" rx="4" fill="#fffdf8" stroke="#58b982" stroke-width="2"/>
    <path d="M170 142h158v84H170z" fill="#143464"/>
    <path d="M170 108h158v34H170z" fill="#ffd35b"/>
    <text x="185" y="151" fill="#143464" font-family="Arial, Helvetica, sans-serif" font-size="68" font-weight="900">G</text>
    <text x="237" y="132" fill="#143464" font-family="Arial, Helvetica, sans-serif" font-size="15" font-weight="800">Medicamento</text>
    <text x="237" y="156" fill="#143464" font-family="Arial, Helvetica, sans-serif" font-size="23" font-weight="900">Gen&#233;rico</text>
    <rect x="-8" y="185" width="50" height="28" rx="14" fill="#94d9af" stroke="#4ea56f" stroke-width="2" transform="rotate(24 17 199)"/>
    <ellipse cx="54" cy="209" rx="24" ry="17" fill="#fffdf8" stroke="#87ba9a" stroke-width="2"/>
  </g>

  <g transform="translate(1210 126)">
    <path class="line" d="M74 78c23-27 82-29 116-7 30 19 46 55 48 102 4 78-31 108-86 108H95c-49 0-77-31-77-91 0-43 19-78 56-112z"/>
    <path class="line" d="M61 85 58 36l39 29M188 67l43-29-6 53"/>
    <path class="line" d="M236 100c31-12 42-47 20-64"/>
    <path class="line" d="M236 99c47 2 50 58 28 81"/>
    <path class="line" d="M46 141h-35M50 164H12M54 186H19"/>
    <path class="line" d="M184 142h39M183 165h43M179 188h33"/>
    <circle cx="101" cy="136" r="4" fill="#123160"/>
    <circle cx="155" cy="136" r="4" fill="#123160"/>
    <path class="soft-line" d="M119 158c8 7 18 7 26 0M132 147l-4 9 7 1"/>
    <path d="M147 244c15 8 40 11 63 0v38h-63z" fill="#123160"/>
    <path d="M104 257c-16 9-36 10-58 1" stroke="#123160" stroke-linecap="round" stroke-width="18"/>
    <path class="line" d="M70 278v42M198 276v43M48 276l-18 43M226 274l21 45"/>
    <path d="M110 220c6 26 8 50 5 74" stroke="#f2aaa3" stroke-linecap="round" stroke-width="8" opacity="0.65"/>
  </g>

  <g transform="translate(440 462)">
    <text class="label" x="0" y="50" font-size="66">Dia do</text>
    <text class="label" x="0" y="130" font-size="86">Idoso</text>
  </g>
  <g transform="translate(694 505)">
    <text class="body" x="0" y="0" font-size="25">Respeito, cuidado</text>
    <text class="body" x="0" y="29" font-size="25">e bem-estar para</text>
    <text class="body" x="0" y="58" font-size="25">quem tanto fez</text>
    <text class="body" x="0" y="87" font-size="25">por n&#243;s.</text>
  </g>

  <g opacity="0.38" transform="translate(16 522)">
    <circle cx="76" cy="78" r="64" fill="#d9c9ed"/>
    <circle cx="170" cy="52" r="33" fill="#bba4dc"/>
    <circle cx="236" cy="124" r="28" fill="#bba4dc"/>
    <circle cx="282" cy="10" r="23" fill="#bba4dc"/>
  </g>

  <g transform="translate(912 418)">
    <path class="line" d="M106 98c24-20 62-16 82 9 26-22 68-12 85 18 20 36 8 98-42 132H137c-48-34-64-96-31-159z"/>
    <circle cx="154" cy="145" r="43" fill="#fffdfc" stroke="#123160" stroke-width="4"/>
    <circle cx="246" cy="147" r="54" fill="#fffdfc" stroke="#123160" stroke-width="4"/>
    <circle cx="140" cy="148" r="5" fill="#123160"/>
    <circle cx="168" cy="148" r="5" fill="#123160"/>
    <circle cx="234" cy="148" r="5" fill="#123160"/>
    <circle cx="260" cy="148" r="5" fill="#123160"/>
    <path class="soft-line" d="M137 117c19-23 62-25 83 0M222 111c24-19 59-11 77 11"/>
    <path class="soft-line" d="M145 170c12 14 25 14 38 0M235 171c13 12 28 12 42 0"/>
    <path class="line" d="M104 228c-34 4-61-15-72-50M93 219c-22-11-37-27-43-48"/>
    <path class="line" d="M198 225c27 0 54-12 78-34"/>
    <path d="M116 257h204v2c0 34-28 62-62 62h-80c-34 0-62-28-62-62z" fill="#d9c9ed" stroke="#123160" stroke-width="4"/>
    <path class="line" d="M196 203v58M236 204v58"/>
    <path class="line" d="M128 322v42M282 322v42"/>
  </g>

  <g transform="translate(1260 446)" opacity="0.82">
    <path d="M82 7c29-24 80-7 86 36 30-32 87-15 99 28 19 69-71 130-127 182C80 203-14 143 3 72 13 28 55 11 82 7z" fill="#b99bd7"/>
    <path d="M132 82v66M99 115h66" stroke="#ffffff" stroke-linecap="round" stroke-width="22"/>
  </g>

  <g transform="translate(440 765)">
    <text class="label" x="0" y="50" font-size="66">Dia do</text>
    <text class="label" x="0" y="130" font-size="86">Beb&#234;</text>
  </g>
  <g transform="translate(694 820)">
    <text class="body" x="0" y="0" font-size="25">Cuidado e carinho</text>
    <text class="body" x="0" y="29" font-size="25">em cada fase</text>
    <text class="body" x="0" y="58" font-size="25">da vida.</text>
  </g>

  <g opacity="0.38" transform="translate(78 814)">
    <circle cx="0" cy="100" r="62" fill="#ffb7b3"/>
    <circle cx="206" cy="142" r="25" fill="#ffb7b3"/>
    <path d="M126 21c22-22 62-9 67 27 23-23 68-7 72 28 7 52-58 92-103 130C113 168 46 129 54 76c5-35 49-53 72-55z" fill="#ff9e9e"/>
  </g>

  <g transform="translate(865 728)">
    <ellipse cx="245" cy="221" rx="150" ry="22" fill="#f6c6bc" opacity="0.48"/>
    <circle cx="230" cy="92" r="75" fill="#fffaf8" stroke="#123160" stroke-width="4"/>
    <path class="soft-line" d="M212 20c24-22 63 2 35 29 16-11 37-4 41 12"/>
    <circle cx="204" cy="91" r="5" fill="#123160"/>
    <circle cx="253" cy="91" r="5" fill="#123160"/>
    <path class="soft-line" d="M216 117c12 15 29 15 43 0"/>
    <circle cx="178" cy="111" r="10" fill="#ffb9b6" opacity="0.75"/>
    <circle cx="280" cy="111" r="10" fill="#ffb9b6" opacity="0.75"/>
    <path class="line" d="M159 146c-48 16-76 52-72 98M301 146c51 16 79 52 75 98"/>
    <path class="line" d="M97 159c-26-8-42-27-43-55M85 169c-24 3-44-5-59-24M363 159c27-8 43-27 45-55M375 169c24 3 44-5 59-24"/>
    <path d="M157 165c45 31 101 31 146 0 28 36 39 80 22 116-18 39-66 56-95 56s-78-17-95-56c-17-36-6-80 22-116z" fill="#fff2ee" stroke="#123160" stroke-width="4"/>
    <path d="M224 226c-4 27-2 54 8 80" stroke="#f2aaa3" stroke-linecap="round" stroke-width="7" opacity="0.65"/>
    <path class="line" d="M151 272c-37 26-71 23-93 0M308 272c39 26 72 23 94 0"/>
    <circle cx="80" cy="178" r="42" fill="#fff4ea" stroke="#123160" stroke-width="4"/>
    <circle cx="51" cy="145" r="14" fill="#fff4ea" stroke="#123160" stroke-width="4"/>
    <circle cx="108" cy="145" r="14" fill="#fff4ea" stroke="#123160" stroke-width="4"/>
    <circle cx="67" cy="176" r="4" fill="#123160"/>
    <circle cx="93" cy="176" r="4" fill="#123160"/>
    <path class="soft-line" d="M74 194c7 6 14 6 21 0"/>
    <path class="line" d="M53 218c-18 20-21 43-7 61M108 218c18 20 21 43 7 61"/>
  </g>

  <g transform="translate(1268 766)" opacity="0.88">
    <path d="M82 7c29-24 80-7 86 36 30-32 87-15 99 28 19 69-71 130-127 182C80 203-14 143 3 72 13 28 55 11 82 7z" fill="#ff858c"/>
    <path d="M132 82v66M99 115h66" stroke="#ffffff" stroke-linecap="round" stroke-width="22"/>
  </g>
</svg>
